<?xml version="1.0"?>
<svg xmlns="http://www.w3.org/2000/svg" viewBox="0 0 26 26" enable-background="new 0 0 26 26">
    <path d="M 19.84375 -0.03125 C 19.546875 -0.009765625 19.375 0.21875 19.3125 0.40625 L 13.28125 11.21875 L 12.90625 11.09375 C 12.70625 10.99375 12.3875 10.99375 12.1875 11.09375 L 1.59375 15 C 1.29375 15.2 1 15.50625 1 15.90625 L 1 19.5 C 1 19.9 1.19375 20.20625 1.59375 20.40625 L 13.6875 25.90625 C 13.7875 25.90625 13.89375 26 14.09375 26 C 14.29375 26 14.3 26.00625 14.5 25.90625 L 24.59375 20.40625 C 24.89375 20.30625 25.1875 19.9 25.1875 19.5 L 25 15.90625 C 25 15.50625 24.7125 15.1 24.3125 15 L 19 13.1875 L 17.40625 14.8125 L 21.3125 16.09375 L 19 17.3125 L 16 16.1875 L 15 17.3125 L 17.3125 18.1875 L 14 19.90625 L 4.6875 16 L 8.40625 14.59375 L 10.8125 15.59375 L 10.3125 16.5 L 11.40625 17.09375 L 21 1.40625 C 21.2 1.10625 21.2 0.6875 20.5 0.1875 C 20.2375 0 20.021875 -0.044140625 19.84375 -0.03125 z M 24.96875 3.34375 C 24.658203 3.3115234 24.4375 3.5 24.3125 3.6875 L 16.4375 12.34375 L 15.40625 12 L 14.40625 13.8125 L 14.9375 13.96875 L 13.75 15.28125 L 13.5 15.1875 L 12.6875 16.40625 L 12.71875 16.40625 L 11.90625 17.3125 L 12.8125 18.09375 L 25.8125 5 C 26.0125 4.8 26.19375 4.2875 25.59375 3.6875 C 25.36875 3.4625 25.155078 3.3630859 24.96875 3.34375 z M 12.15625 13.21875 L 11.4375 14.5 L 10.09375 14 L 12.15625 13.21875 z"/>
</svg>
