<?xml version="1.0" standalone="no"?>
<!DOCTYPE svg PUBLIC "-//W3C//DTD SVG 20010904//EN"
 "http://www.w3.org/TR/2001/REC-SVG-20010904/DTD/svg10.dtd">
<svg version="1.0" xmlns="http://www.w3.org/2000/svg"
 width="600.000000pt" height="250.000000pt" viewBox="0 0 600.000000 250.000000"
 preserveAspectRatio="xMidYMid meet">

<g transform="translate(0.000000,250.000000) scale(0.100000,-0.100000)"
fill="#000000" stroke="none">
<path d="M1203 2108 c-4 -7 -90 -159 -190 -338 -173 -310 -183 -325 -208 -322
-38 4 -685 -234 -708 -260 -14 -17 -17 -41 -17 -148 0 -111 2 -129 18 -144 22
-19 759 -356 780 -356 8 0 160 79 338 176 218 119 325 182 330 196 3 11 3 76
-1 144 -6 91 -11 127 -23 136 -8 7 -90 38 -181 70 l-166 56 -47 -46 c-26 -25
-45 -48 -43 -52 2 -3 54 -22 114 -41 61 -19 111 -37 111 -40 0 -3 -31 -20 -69
-38 l-69 -34 -82 32 c-45 17 -87 31 -93 30 -13 0 -62 -57 -56 -64 2 -2 33 -14
69 -28 l65 -24 -102 -52 -103 -51 -279 117 c-154 65 -277 120 -273 124 4 3 53
22 110 43 114 41 96 42 215 -8 37 -16 37 -17 21 -41 -9 -14 -15 -27 -13 -28
25 -18 61 -38 64 -35 29 35 585 963 585 977 0 39 -78 78 -97 49z m-464 -833
c-23 -39 -21 -38 -69 -20 l-35 13 30 12 c17 6 39 16 50 20 39 17 45 11 24 -25z"/>
<path d="M1503 1896 c-15 -14 -129 -137 -253 -275 -232 -258 -229 -256 -282
-236 -19 7 -71 -94 -57 -111 12 -14 -44 -84 -67 -84 -8 0 -14 -3 -14 -7 0 -5
-18 -32 -41 -62 l-41 -54 24 -23 24 -24 399 400 c220 220 402 405 403 411 8
23 -10 60 -37 74 -28 14 -31 13 -58 -9z"/>
<path d="M5254 1535 c-233 -51 -386 -268 -345 -491 33 -181 153 -306 333 -349
229 -54 464 43 551 227 164 346 -146 699 -539 613z m179 -229 c78 -28 117 -92
117 -191 0 -125 -71 -205 -180 -205 -109 0 -180 80 -180 202 0 68 23 130 58
161 25 23 88 46 122 46 14 0 42 -6 63 -13z"/>
<path d="M1767 1523 c-4 -3 -7 -190 -7 -415 l0 -409 308 3 c290 3 310 5 363
26 62 25 115 72 135 119 17 39 18 121 3 160 -13 35 -64 90 -103 110 l-28 15
34 29 c46 37 68 85 68 148 0 113 -73 184 -215 210 -63 12 -547 15 -558 4z
m473 -213 c24 -24 25 -49 6 -76 -12 -16 -29 -20 -110 -22 l-96 -4 0 61 0 61
90 0 c77 0 93 -3 110 -20z m40 -310 c11 -11 20 -29 20 -40 0 -11 -9 -29 -20
-40 -18 -18 -33 -20 -130 -20 l-110 0 0 60 0 60 110 0 c97 0 112 -2 130 -20z"/>
<path d="M2617 1523 c-4 -3 -7 -190 -7 -415 l0 -408 350 0 350 0 0 105 0 105
-210 0 -210 0 0 55 0 55 175 0 175 0 0 100 0 100 -175 0 -175 0 0 45 0 45 200
0 200 0 0 110 0 110 -333 0 c-184 0 -337 -3 -340 -7z"/>
<path d="M3347 1523 c-4 -3 -7 -190 -7 -415 l0 -408 140 0 140 0 0 186 0 186
155 -186 155 -186 115 0 115 0 0 415 0 415 -135 0 -135 0 -2 -185 -3 -185
-154 185 -155 185 -111 0 c-62 0 -115 -3 -118 -7z"/>
<path d="M4170 1420 l0 -110 120 0 120 0 0 -305 0 -305 145 0 145 0 0 305 0
305 120 0 120 0 0 110 0 110 -385 0 -385 0 0 -110z"/>
</g>
</svg>
